<svg width="169" height="196" viewBox="0 0 169 196" fill="none" xmlns="http://www.w3.org/2000/svg">
<path d="M0.300049 121.19L69.9765 161.419L139.653 121.19V40.7298L69.9765 0.5L0.300049 40.7298V121.19Z" fill="#469EA2"/>
<path d="M62.843 10.1219L12.2446 39.3197C12.3276 40.2302 12.3276 41.1464 12.2446 42.057L62.76 71.2547C67.0239 68.1022 72.8461 68.1022 77.1101 71.2547L127.625 42.057C127.543 41.1464 127.543 40.2302 127.625 39.3197L77.193 10.1219C72.9291 13.2744 67.1069 13.2744 62.843 10.1219ZM132.519 50.1029L81.921 79.6325C82.4835 84.886 79.6054 89.9059 74.7875 92.0747L74.8705 150.138C75.6885 150.499 76.4668 150.944 77.193 151.466L127.708 122.268C127.146 117.014 130.024 111.994 134.842 109.826V51.4301C134.033 51.051 133.257 50.6071 132.519 50.1029ZM7.43363 50.4347C6.70747 50.9563 5.92912 51.4011 5.11108 51.7619V110.157C9.99525 112.252 12.9041 117.326 12.2446 122.6L62.76 151.797C63.4862 151.276 64.2645 150.831 65.0826 150.47V92.0747C60.1984 89.9796 57.2895 84.9059 57.949 79.6325L7.43363 50.4347Z" fill="#6ACAD1"/>
<path d="M69.9765 9.20955L132.271 45.209V117.125L69.9765 153.125L7.68243 117.125V45.1261L69.9765 9.20955ZM69.9765 0.665894L0.300049 40.8957V121.355L69.9765 161.585L139.653 121.355V40.8957L69.9765 0.665894Z" fill="#469EA2"/>
<path d="M70.4742 94.6462H69.4788C66.0222 94.655 62.7046 93.2858 60.2605 90.8416C57.8163 88.3974 56.4471 85.0798 56.4559 81.6233V80.6279C56.4471 77.1713 57.8163 73.8538 60.2605 71.4096C62.7046 68.9654 66.0222 67.5962 69.4788 67.605H70.4742C73.9307 67.5962 77.2483 68.9654 79.6925 71.4096C82.1366 73.8538 83.5059 77.1713 83.4971 80.6279V81.6233C83.5059 85.0798 82.1366 88.3974 79.6925 90.8416C77.2483 93.2858 73.9307 94.655 70.4742 94.6462ZM70.4742 148.148H69.4788C64.7673 148.133 60.4179 150.673 58.1149 154.784L69.9765 161.585L81.838 154.784C79.535 150.673 75.1857 148.133 70.4742 148.148ZM139.736 107.918H139.238C135.782 107.909 132.464 109.278 130.02 111.722C127.576 114.167 126.206 117.484 126.215 120.941V121.936C126.203 124.147 126.776 126.322 127.874 128.24L139.736 121.355V107.918ZM127.874 34.094C126.785 36.0165 126.214 38.1886 126.215 40.398V41.3934C126.206 44.85 127.576 48.1676 130.02 50.6117C132.464 53.0559 135.782 54.4251 139.238 54.4163H139.736V40.8957L127.874 34.094ZM69.9765 0.665894L58.1149 7.46764C60.4068 11.5997 64.7537 14.1697 69.4788 14.1865H70.4742C75.1857 14.2006 79.535 11.6609 81.838 7.55059L69.9765 0.665894ZM12.1616 34.011L0.300049 40.8957V54.4163H0.797738C4.25432 54.4251 7.57187 53.0559 10.016 50.6117C12.4602 48.1676 13.8294 44.85 13.8206 41.3934V40.398C13.7925 38.1662 13.2232 35.9745 12.1616 34.011ZM0.797738 107.918H0.300049V121.355L12.1616 128.24C13.2505 126.318 13.8221 124.146 13.8206 121.936V120.941C13.8294 117.484 12.4602 114.167 10.016 111.722C7.57187 109.278 4.25432 107.909 0.797738 107.918Z" fill="#469EA2"/>
<path d="M69.9765 162V81.4573L0.300049 41.2275V121.77L69.9765 162Z" fill="#083B54" fill-opacity="0.15"/>
<path d="M139.736 121.024V40.5639L70.0594 80.7937V161.336L139.736 121.024Z" fill="#083B54" fill-opacity="0.05"/>
<path d="M111.5 165.5C119.301 165.5 125.625 159.176 125.625 151.375C125.625 143.574 119.301 137.25 111.5 137.25C103.699 137.25 97.375 143.574 97.375 151.375C97.375 159.176 103.699 165.5 111.5 165.5Z" fill="#2B393A"/>
<path d="M166.424 147.692C162.06 136.575 154.53 126.984 144.767 120.106C135.004 113.229 123.437 109.367 111.5 109C99.5632 109.367 87.9965 113.229 78.2334 120.106C68.4702 126.984 60.9399 136.575 56.5756 147.692L55 151.375L56.5756 155.058C60.9399 166.175 68.4702 175.766 78.2334 182.644C87.9965 189.521 99.5632 193.383 111.5 193.75C123.437 193.383 135.004 189.521 144.767 182.644C154.53 175.766 162.06 166.175 166.424 155.058L168 151.375L166.424 147.692ZM111.5 179.625C105.913 179.625 100.451 177.968 95.8051 174.864C91.1595 171.76 87.5386 167.348 85.4004 162.186C83.2622 157.024 82.7028 151.344 83.7928 145.864C84.8828 140.384 87.5734 135.35 91.5242 131.399C95.4751 127.448 100.509 124.758 105.989 123.668C111.469 122.578 117.149 123.137 122.311 125.275C127.473 127.414 131.885 131.034 134.989 135.68C138.093 140.326 139.75 145.788 139.75 151.375C139.742 158.865 136.763 166.045 131.466 171.341C126.17 176.638 118.99 179.617 111.5 179.625Z" fill="#2B393A"/>
</svg>
